<svg width="16" height="16" viewBox="0 0 16 16" fill="none" xmlns="http://www.w3.org/2000/svg">
<rect width="16" height="16" fill="#292929"/>
<path d="M8.25852 7.34035H6.25568C6.24148 7.17463 6.2036 7.0243 6.14205 6.88935C6.08286 6.75441 6 6.63841 5.89347 6.54134C5.7893 6.44191 5.66264 6.36615 5.51349 6.31407C5.36435 6.25962 5.19508 6.23239 5.00568 6.23239C4.67424 6.23239 4.3937 6.31289 4.16406 6.47387C3.93679 6.63486 3.76397 6.86568 3.6456 7.16634C3.52959 7.46701 3.47159 7.82804 3.47159 8.24944C3.47159 8.69452 3.53078 9.06738 3.64915 9.36805C3.76989 9.66634 3.94389 9.89125 4.17116 10.0428C4.39844 10.1919 4.67188 10.2665 4.99148 10.2665C5.17377 10.2665 5.33712 10.244 5.48153 10.199C5.62595 10.1517 5.75142 10.0842 5.85795 9.9966C5.96449 9.909 6.0509 9.80365 6.11719 9.68055C6.18584 9.55507 6.23201 9.41421 6.25568 9.25796L8.25852 9.27217C8.23485 9.57993 8.14844 9.89362 7.99929 10.2132C7.85014 10.5305 7.63826 10.824 7.36364 11.0939C7.09138 11.3614 6.75402 11.5769 6.35156 11.7402C5.9491 11.9036 5.48153 11.9852 4.94886 11.9852C4.28125 11.9852 3.68229 11.842 3.15199 11.5555C2.62405 11.2691 2.2062 10.8477 1.89844 10.2913C1.59304 9.735 1.44034 9.05436 1.44034 8.24944C1.44034 7.43978 1.59659 6.75796 1.90909 6.20399C2.22159 5.64764 2.64299 5.22742 3.1733 4.94333C3.7036 4.65687 4.29545 4.51364 4.94886 4.51364C5.40814 4.51364 5.83073 4.57638 6.21662 4.70185C6.60251 4.82733 6.94105 5.0108 7.23224 5.25228C7.52344 5.49139 7.75781 5.78613 7.93537 6.13651C8.11293 6.48689 8.22064 6.88817 8.25852 7.34035ZM7.6543 11.8858V4.61308H9.62873V7.55342H9.72816L11.9157 4.61308H14.2168L11.7594 7.85171L14.2736 11.8858H11.9157L10.2821 9.15853L9.62873 10.0108V11.8858H7.6543Z" fill="white"/>
</svg>
