<svg width="90" height="45" viewBox="0 0 90 45" fill="none" xmlns="http://www.w3.org/2000/svg">
<rect width="90" height="45" fill="#292929"/>
<path d="M46.9807 19.3864H39.7705C39.7193 18.7898 39.583 18.2486 39.3614 17.7628C39.1483 17.277 38.85 16.8594 38.4665 16.5099C38.0915 16.152 37.6355 15.8793 37.0986 15.6918C36.5617 15.4957 35.9523 15.3977 35.2705 15.3977C34.0773 15.3977 33.0673 15.6875 32.2406 16.267C31.4224 16.8466 30.8003 17.6776 30.3742 18.7599C29.9565 19.8423 29.7477 21.142 29.7477 22.6591C29.7477 24.2614 29.9608 25.6037 30.3869 26.6861C30.8216 27.7599 31.448 28.5696 32.2662 29.1151C33.0844 29.652 34.0688 29.9205 35.2193 29.9205C35.8756 29.9205 36.4636 29.8395 36.9835 29.6776C37.5034 29.5071 37.9551 29.2642 38.3386 28.9489C38.7222 28.6335 39.0332 28.2543 39.2719 27.8111C39.519 27.3594 39.6852 26.8523 39.7705 26.2898L46.9807 26.3409C46.8955 27.4489 46.5844 28.5781 46.0475 29.7287C45.5105 30.8707 44.7477 31.9276 43.7591 32.8991C42.779 33.8622 41.5645 34.6378 40.1156 35.2259C38.6668 35.8139 36.9835 36.108 35.0659 36.108C32.6625 36.108 30.5063 35.5923 28.5972 34.5611C26.6966 33.5298 25.1923 32.0128 24.0844 30.0099C22.9849 28.0071 22.4352 25.5568 22.4352 22.6591C22.4352 19.7443 22.9977 17.2898 24.1227 15.2955C25.2477 13.2926 26.7648 11.7798 28.6739 10.7571C30.583 9.72585 32.7136 9.21023 35.0659 9.21023C36.7193 9.21023 38.2406 9.43608 39.6298 9.88778C41.019 10.3395 42.2378 11 43.2861 11.8693C44.3344 12.7301 45.1781 13.7912 45.8173 15.0526C46.4565 16.3139 46.8443 17.7585 46.9807 19.3864ZM44.8055 35.75V9.56818H51.9134V20.1534H52.2714L60.1464 9.56818H68.4305L59.5839 21.2273L68.635 35.75H60.1464L54.2657 25.9318L51.9134 29V35.75H44.8055Z" fill="white"/>
</svg>
